<?xml version="1.0" encoding="UTF-8" standalone="no"?>
<svg
   xmlns:dc="http://purl.org/dc/elements/1.1/"
   xmlns:cc="http://creativecommons.org/ns#"
   xmlns:rdf="http://www.w3.org/1999/02/22-rdf-syntax-ns#"
   xmlns:svg="http://www.w3.org/2000/svg"
   xmlns="http://www.w3.org/2000/svg"
   xmlns:sodipodi="http://sodipodi.sourceforge.net/DTD/sodipodi-0.dtd"
   xmlns:inkscape="http://www.inkscape.org/namespaces/inkscape"
   inkscape:version="1.0 (4035a4fb49, 2020-05-01)"
   sodipodi:docname="phase-diagram.svg"
   viewBox="0 0 349.84937 252.5052"
   height="252.5052"
   width="349.84937"
   xml:space="preserve"
   id="svg2"
   version="1.1"><metadata
     id="metadata8"><rdf:RDF><cc:Work
         rdf:about=""><dc:format>image/svg+xml</dc:format><dc:type
           rdf:resource="http://purl.org/dc/dcmitype/StillImage" /><dc:title></dc:title></cc:Work></rdf:RDF></metadata><defs
     id="defs6"><clipPath
       id="clipPath22"
       clipPathUnits="userSpaceOnUse"><path
         id="path20"
         d="M 39.461,14.332 H 219.457 V 159.191 H 39.461 Z" /></clipPath><clipPath
       id="clipPath30"
       clipPathUnits="userSpaceOnUse"><path
         id="path28"
         d="M 0,0 H 263 V 190 H 0 Z" /></clipPath><clipPath
       id="clipPath46"
       clipPathUnits="userSpaceOnUse"><path
         id="path44"
         d="M 0,0 H 263 V 190 H 0 Z" /></clipPath><clipPath
       id="clipPath82"
       clipPathUnits="userSpaceOnUse"><path
         id="path80"
         d="M 0,0 H 263 V 190 H 0 Z" /></clipPath><clipPath
       id="clipPath308"
       clipPathUnits="userSpaceOnUse"><path
         id="path306"
         d="M 39.461,14.332 H 219.457 V 159.191 H 39.461 Z" /></clipPath><clipPath
       id="clipPath318"
       clipPathUnits="userSpaceOnUse"><path
         id="path316"
         d="M 0,0 H 263 V 190 H 0 Z" /></clipPath><clipPath
       id="clipPath334"
       clipPathUnits="userSpaceOnUse"><path
         id="path332"
         d="M 0,0 H 263 V 190 H 0 Z" /></clipPath><clipPath
       id="clipPath368"
       clipPathUnits="userSpaceOnUse"><path
         id="path366"
         d="m 230.707,14.332 h 7.242 v 144.859 h -7.242 z" /></clipPath><clipPath
       id="clipPath378"
       clipPathUnits="userSpaceOnUse"><path
         id="path376"
         d="M 0,0 H 263 V 190 H 0 Z" /></clipPath><clipPath
       id="clipPath392"
       clipPathUnits="userSpaceOnUse"><path
         id="path390"
         d="M 0,0 H 263 V 190 H 0 Z" /></clipPath></defs><sodipodi:namedview
     inkscape:current-layer="g10"
     inkscape:window-maximized="0"
     inkscape:window-y="0"
     inkscape:window-x="0"
     inkscape:cy="126.2526"
     inkscape:cx="174.92468"
     inkscape:zoom="3.1356352"
     showgrid="false"
     id="namedview4"
     inkscape:window-height="480"
     inkscape:window-width="820"
     inkscape:pageshadow="2"
     inkscape:pageopacity="0"
     guidetolerance="10"
     gridtolerance="10"
     objecttolerance="10"
     borderopacity="1"
     bordercolor="#666666"
     pagecolor="#ffffff" /><g
     transform="matrix(1.3333333,0,0,1.3333333,0,8.3126301e-6)"
     inkscape:label="phase-diagram"
     inkscape:groupmode="layer"
     id="g10"><g
       id="g12"><path
         id="path14"
         style="fill:#ffffff;fill-opacity:1;fill-rule:nonzero;stroke:none"
         d="M 39.461,14.332 H 219.457 V 159.191 H 39.461 Z" /></g><g
       id="g16"><g
         clip-path="url(#clipPath22)"
         id="g18"><g
           id="g24"><g
             id="g26" /><g
             id="g38"><g
               id="g36"
               clip-path="url(#clipPath30)"><g
                 id="g34"><path
                   id="path32"
                   style="fill:#993333;fill-opacity:0.25;fill-rule:nonzero;stroke:none"
                   d="m 201.277,106.625 18.18,2.129 V 14.332 H 60.383 l 3.578,1.656 -1.356,1.852 3.309,2.101 4.195,2.426 -1.738,2.867 5.633,2.743 1.848,0.765 3.175,4.528 1.93,6.375 11.231,5.753 10.312,5.149 0.742,1.656 -1.84,1.852 0.668,2.101 5.114,2.426 3.183,2.281 3.238,0.586 5.446,3.508 2.949,4.527 6.551,2.364 15.449,4.011 2.73,1.336 16.036,9.567 -2.411,1.656 4.559,0.891 7,0.961 1.629,2.101 3.152,2.426 6.399,1.773 4.176,1.094 2.464,3.508 8.762,4.527 z" /></g></g></g></g><g
           id="g40"><g
             id="g42" /><g
             id="g74"><g
               id="g72"
               clip-path="url(#clipPath46)"><g
                 id="g70"><path
                   id="path48"
                   style="fill:#339933;fill-opacity:0.25;fill-rule:nonzero;stroke:none"
                   d="m 39.461,153.289 v 5.902 h 0.48 z" /><path
                   id="path50"
                   style="fill:#339933;fill-opacity:0.25;fill-rule:nonzero;stroke:none"
                   d="m 92.188,159.191 h 127.269 v -50.437 l -18.18,-2.129 -2.781,-0.926 -8.762,-4.527 -2.464,-3.508 -4.176,-1.094 -6.399,-1.773 -3.152,-2.426 -1.629,-2.101 -7,-0.961 -4.559,-0.891 2.411,-1.656 L 146.73,77.195 144,75.859 128.551,71.848 122,69.484 l -2.949,-4.527 -5.446,-3.508 -3.238,-0.586 -3.183,-2.281 -5.114,-2.426 -0.668,-2.101 1.84,-1.852 -0.742,-1.656 -10.312,-5.149 -11.231,-5.753 -1.93,-6.375 -3.175,-4.528 -1.848,-0.765 -5.633,-2.743 1.738,-2.867 -4.195,-2.426 -3.309,-2.101 1.356,-1.852 -3.578,-1.656 h -18.68 l 0.715,1.656 0.68,1.285 0.187,0.567 -0.187,0.644 -0.52,1.457 0.52,1.575 0.418,0.851 -0.176,2.867 1.574,3.243 0.098,0.265 -0.098,1.473 -0.703,3.055 0.703,2.293 1.82,2.808 0.43,1.274 0.195,10.902 0.606,1.656 0.586,1.402 0.668,0.45 -0.039,2.101 0.16,2.426 -0.789,2.457 -0.313,0.41 0.313,0.891 1.82,0.277 0.379,2.34 1.438,4.406 0.042,0.121 1.778,5.383 0.262,0.992 0.933,10.903 -1.195,1.152 -1.223,0.504 1.223,0.297 1.527,1.555 0.289,0.687 2.676,1.414 -1.086,2.426 1.973,2.867 -0.875,3.508 2.008,4.527 4.308,6.375 -3.066,10.903 2.754,1.656 -0.082,1.851 -0.27,2.102 6.02,2.426 -4.325,2.867 4.899,3.508 -2.945,4.527 6.191,4.305 1.828,2.07 8.629,10.902 z" /><path
                   id="path52"
                   style="fill:#339933;fill-opacity:0.25;fill-rule:nonzero;stroke:none"
                   d="m 40.344,137.387 -0.699,-3.508 -0.184,-0.211 v 4.902 z" /><path
                   id="path54"
                   style="fill:#339933;fill-opacity:0.25;fill-rule:nonzero;stroke:none"
                   d="m 44.914,137.809 0.238,-0.422 -0.062,-3.508 -0.176,-0.391 -0.375,0.391 0.121,3.508 z" /><path
                   id="path56"
                   style="fill:#339933;fill-opacity:0.25;fill-rule:nonzero;stroke:none"
                   d="m 39.625,124.633 -0.164,-1.043 v 1.621 z" /><path
                   id="path58"
                   style="fill:#339933;fill-opacity:0.25;fill-rule:nonzero;stroke:none"
                   d="m 39.871,90.27 -0.41,-0.813 v 1.465 z" /><path
                   id="path60"
                   style="fill:#339933;fill-opacity:0.25;fill-rule:nonzero;stroke:none"
                   d="m 43.098,88.629 0.394,-0.211 -0.394,-0.289 -0.938,0.289 z" /><path
                   id="path62"
                   style="fill:#339933;fill-opacity:0.25;fill-rule:nonzero;stroke:none"
                   d="M 40.273,64.957 39.848,61.449 39.461,60.09 v 6.215 z" /><path
                   id="path64"
                   style="fill:#339933;fill-opacity:0.25;fill-rule:nonzero;stroke:none"
                   d="m 44.914,52.523 0.207,-0.32 -0.207,-0.156 -0.269,0.156 z" /><path
                   id="path66"
                   style="fill:#339933;fill-opacity:0.25;fill-rule:nonzero;stroke:none"
                   d="m 39.828,50.547 -0.367,-1.363 v 1.66 z" /><path
                   id="path68"
                   style="fill:#339933;fill-opacity:0.25;fill-rule:nonzero;stroke:none"
                   d="m 39.809,28.742 -0.348,-2.828 v 4.141 z" /></g></g></g></g><g
           id="g76"><g
             id="g78" /><g
             id="g90"><g
               id="g88"
               clip-path="url(#clipPath82)"><g
                 id="g86"><path
                   id="path84"
                   style="fill:#333399;fill-opacity:0.25;fill-rule:nonzero;stroke:none"
                   d="m 41.277,159.191 h 43.184 l -8.629,-10.902 -1.828,-2.07 -6.191,-4.305 2.945,-4.527 -4.899,-3.508 4.325,-2.867 -6.02,-2.426 0.27,-2.102 0.082,-1.851 -2.754,-1.656 3.066,-10.903 -4.308,-6.375 -2.008,-4.527 0.875,-3.508 -1.973,-2.867 1.086,-2.426 -2.676,-1.414 -0.289,-0.687 -1.527,-1.555 -1.223,-0.297 1.223,-0.504 1.195,-1.152 -0.933,-10.903 -0.262,-0.992 -1.778,-5.383 -0.042,-0.121 -1.438,-4.406 -0.379,-2.34 -1.82,-0.277 -0.313,-0.891 0.313,-0.41 0.789,-2.457 -0.16,-2.426 0.039,-2.101 -0.668,-0.45 -0.586,-1.402 -0.606,-1.656 -0.195,-10.902 -0.43,-1.274 -1.82,-2.808 -0.703,-2.293 0.703,-3.055 0.098,-1.473 -0.098,-0.265 -1.574,-3.243 0.176,-2.867 -0.418,-0.851 -0.52,-1.575 0.52,-1.457 0.187,-0.644 -0.187,-0.567 -0.68,-1.285 -0.715,-1.656 h -2.242 v 11.582 l 0.348,2.828 -0.348,1.313 v 19.129 l 0.367,1.363 -0.367,0.297 v 9.246 l 0.387,1.359 0.425,3.508 -0.812,1.348 v 23.152 l 0.41,0.813 -0.41,0.652 v 32.668 l 0.164,1.043 -0.164,0.578 v 8.457 l 0.184,0.211 0.699,3.508 -0.883,1.183 v 14.719 l 0.48,5.902 z m 3.383,-21.804 -0.121,-3.508 0.375,-0.391 0.176,0.391 0.062,3.508 -0.238,0.422 z m -2.5,-48.969 0.938,-0.289 0.394,0.289 -0.394,0.211 z m 2.485,-36.215 0.269,-0.156 0.207,0.156 -0.207,0.32 z" /></g></g></g></g></g></g><g
       id="g92"><g
         transform="scale(1,-1)"
         id="g94"><path
           id="path96"
           style="fill:none;stroke:#000000;stroke-width:0.8;stroke-linecap:butt;stroke-linejoin:round;stroke-miterlimit:10;stroke-dasharray:none;stroke-opacity:1"
           d="m 85.531,-159.191 v -3.5" /></g><text
         id="text100"
         style="font-style:italic;font-variant:normal;font-size:10px;font-family:'Times New Roman';-inkscape-font-specification:TimesNewRomanPS-ItalicMT;writing-mode:lr-tb;fill:#000000;fill-opacity:1;fill-rule:nonzero;stroke:none"
         transform="translate(80.529701,173.01953)"><tspan
           id="tspan98"
           sodipodi:role="line"
           y="0"
           x="0 5">50</tspan></text><g
         transform="scale(1,-1)"
         id="g102"><path
           id="path104"
           style="fill:none;stroke:#000000;stroke-width:0.8;stroke-linecap:butt;stroke-linejoin:round;stroke-miterlimit:10;stroke-dasharray:none;stroke-opacity:1"
           d="m 133.418,-159.191 v -3.5" /></g><text
         id="text108"
         style="font-style:italic;font-variant:normal;font-size:10px;font-family:'Times New Roman';-inkscape-font-specification:TimesNewRomanPS-ItalicMT;writing-mode:lr-tb;fill:#000000;fill-opacity:1;fill-rule:nonzero;stroke:none"
         transform="translate(125.91662,173.01953)"><tspan
           id="tspan106"
           sodipodi:role="line"
           y="0"
           x="0 5 10">100</tspan></text><g
         transform="scale(1,-1)"
         id="g110"><path
           id="path112"
           style="fill:none;stroke:#000000;stroke-width:0.8;stroke-linecap:butt;stroke-linejoin:round;stroke-miterlimit:10;stroke-dasharray:none;stroke-opacity:1"
           d="m 181.305,-159.191 v -3.5" /></g><text
         id="text116"
         style="font-style:italic;font-variant:normal;font-size:10px;font-family:'Times New Roman';-inkscape-font-specification:TimesNewRomanPS-ItalicMT;writing-mode:lr-tb;fill:#000000;fill-opacity:1;fill-rule:nonzero;stroke:none"
         transform="translate(173.80353,173.01953)"><tspan
           id="tspan114"
           sodipodi:role="line"
           y="0"
           x="0 5 10">150</tspan></text><text
         id="text120"
         style="font-style:italic;font-variant:normal;font-size:16px;font-family:'Times New Roman';-inkscape-font-specification:TimesNewRomanPS-ItalicMT;writing-mode:lr-tb;fill:#000000;fill-opacity:1;fill-rule:nonzero;stroke:none"
         transform="translate(125.45934,189.1914)"><tspan
           id="tspan118"
           y="0"
           x="0">s</tspan></text><g
         transform="scale(1,-1)"
         id="g122"><path
           id="path124"
           style="fill:none;stroke:#000000;stroke-width:0.8;stroke-linecap:butt;stroke-linejoin:round;stroke-miterlimit:10;stroke-dasharray:none;stroke-opacity:1"
           d="m 39.461,-149.109 h -3.5" /></g><text
         id="text128"
         style="font-style:italic;font-variant:normal;font-size:10px;font-family:'Times New Roman';-inkscape-font-specification:TimesNewRomanPS-ItalicMT;writing-mode:lr-tb;fill:#000000;fill-opacity:1;fill-rule:nonzero;stroke:none"
         transform="translate(15.460937,152.43639)"><tspan
           id="tspan126"
           sodipodi:role="line"
           y="0"
           x="0 5">10</tspan></text><text
         id="text132"
         style="font-style:italic;font-variant:normal;font-size:7px;font-family:'Times New Roman';-inkscape-font-specification:TimesNewRomanPS-ItalicMT;writing-mode:lr-tb;fill:#000000;fill-opacity:1;fill-rule:nonzero;stroke:none"
         transform="translate(25.618406,148.83639)"><tspan
           id="tspan130"
           sodipodi:role="line"
           y="0"
           x="0 2.3310001">-5</tspan></text><g
         transform="scale(1,-1)"
         id="g134"><path
           id="path136"
           style="fill:none;stroke:#000000;stroke-width:0.8;stroke-linecap:butt;stroke-linejoin:round;stroke-miterlimit:10;stroke-dasharray:none;stroke-opacity:1"
           d="m 39.461,-112.895 h -3.5" /></g><text
         id="text140"
         style="font-style:italic;font-variant:normal;font-size:10px;font-family:'Times New Roman';-inkscape-font-specification:TimesNewRomanPS-ItalicMT;writing-mode:lr-tb;fill:#000000;fill-opacity:1;fill-rule:nonzero;stroke:none"
         transform="translate(15.460937,116.14503)"><tspan
           id="tspan138"
           sodipodi:role="line"
           y="0"
           x="0 5">10</tspan></text><text
         id="text144"
         style="font-style:italic;font-variant:normal;font-size:7px;font-family:'Times New Roman';-inkscape-font-specification:TimesNewRomanPS-ItalicMT;writing-mode:lr-tb;fill:#000000;fill-opacity:1;fill-rule:nonzero;stroke:none"
         transform="translate(25.618406,112.54504)"><tspan
           id="tspan142"
           sodipodi:role="line"
           y="0"
           x="0 2.3310001">-4</tspan></text><g
         transform="scale(1,-1)"
         id="g146"><path
           id="path148"
           style="fill:none;stroke:#000000;stroke-width:0.8;stroke-linecap:butt;stroke-linejoin:round;stroke-miterlimit:10;stroke-dasharray:none;stroke-opacity:1"
           d="m 39.461,-76.68 h -3.5" /></g><text
         id="text152"
         style="font-style:italic;font-variant:normal;font-size:10px;font-family:'Times New Roman';-inkscape-font-specification:TimesNewRomanPS-ItalicMT;writing-mode:lr-tb;fill:#000000;fill-opacity:1;fill-rule:nonzero;stroke:none"
         transform="translate(15.460937,79.930237)"><tspan
           id="tspan150"
           sodipodi:role="line"
           y="0"
           x="0 5">10</tspan></text><text
         id="text156"
         style="font-style:italic;font-variant:normal;font-size:7px;font-family:'Times New Roman';-inkscape-font-specification:TimesNewRomanPS-ItalicMT;writing-mode:lr-tb;fill:#000000;fill-opacity:1;fill-rule:nonzero;stroke:none"
         transform="translate(25.618406,76.330237)"><tspan
           id="tspan154"
           sodipodi:role="line"
           y="0"
           x="0 2.3310001">-3</tspan></text><g
         transform="scale(1,-1)"
         id="g158"><path
           id="path160"
           style="fill:none;stroke:#000000;stroke-width:0.8;stroke-linecap:butt;stroke-linejoin:round;stroke-miterlimit:10;stroke-dasharray:none;stroke-opacity:1"
           d="m 39.461,-40.465 h -3.5" /></g><text
         id="text164"
         style="font-style:italic;font-variant:normal;font-size:10px;font-family:'Times New Roman';-inkscape-font-specification:TimesNewRomanPS-ItalicMT;writing-mode:lr-tb;fill:#000000;fill-opacity:1;fill-rule:nonzero;stroke:none"
         transform="translate(15.460937,43.715448)"><tspan
           id="tspan162"
           sodipodi:role="line"
           y="0"
           x="0 5">10</tspan></text><text
         id="text168"
         style="font-style:italic;font-variant:normal;font-size:7px;font-family:'Times New Roman';-inkscape-font-specification:TimesNewRomanPS-ItalicMT;writing-mode:lr-tb;fill:#000000;fill-opacity:1;fill-rule:nonzero;stroke:none"
         transform="translate(25.618406,40.115448)"><tspan
           id="tspan166"
           sodipodi:role="line"
           y="0"
           x="0 2.3310001">-2</tspan></text><g
         transform="scale(1,-1)"
         id="g170"><path
           id="path172"
           style="fill:none;stroke:#000000;stroke-width:0.6;stroke-linecap:butt;stroke-linejoin:round;stroke-miterlimit:10;stroke-dasharray:none;stroke-opacity:1"
           d="m 39.461,-157.145 h -2" /></g><g
         transform="scale(1,-1)"
         id="g174"><path
           id="path176"
           style="fill:none;stroke:#000000;stroke-width:0.6;stroke-linecap:butt;stroke-linejoin:round;stroke-miterlimit:10;stroke-dasharray:none;stroke-opacity:1"
           d="m 39.461,-154.719 h -2" /></g><g
         transform="scale(1,-1)"
         id="g178"><path
           id="path180"
           style="fill:none;stroke:#000000;stroke-width:0.6;stroke-linecap:butt;stroke-linejoin:round;stroke-miterlimit:10;stroke-dasharray:none;stroke-opacity:1"
           d="m 39.461,-152.621 h -2" /></g><g
         transform="scale(1,-1)"
         id="g182"><path
           id="path184"
           style="fill:none;stroke:#000000;stroke-width:0.6;stroke-linecap:butt;stroke-linejoin:round;stroke-miterlimit:10;stroke-dasharray:none;stroke-opacity:1"
           d="m 39.461,-150.766 h -2" /></g><g
         transform="scale(1,-1)"
         id="g186"><path
           id="path188"
           style="fill:none;stroke:#000000;stroke-width:0.6;stroke-linecap:butt;stroke-linejoin:round;stroke-miterlimit:10;stroke-dasharray:none;stroke-opacity:1"
           d="m 39.461,-138.207 h -2" /></g><g
         transform="scale(1,-1)"
         id="g190"><path
           id="path192"
           style="fill:none;stroke:#000000;stroke-width:0.6;stroke-linecap:butt;stroke-linejoin:round;stroke-miterlimit:10;stroke-dasharray:none;stroke-opacity:1"
           d="m 39.461,-131.832 h -2" /></g><g
         transform="scale(1,-1)"
         id="g194"><path
           id="path196"
           style="fill:none;stroke:#000000;stroke-width:0.6;stroke-linecap:butt;stroke-linejoin:round;stroke-miterlimit:10;stroke-dasharray:none;stroke-opacity:1"
           d="m 39.461,-127.305 h -2" /></g><g
         transform="scale(1,-1)"
         id="g198"><path
           id="path200"
           style="fill:none;stroke:#000000;stroke-width:0.6;stroke-linecap:butt;stroke-linejoin:round;stroke-miterlimit:10;stroke-dasharray:none;stroke-opacity:1"
           d="m 39.461,-123.797 h -2" /></g><g
         transform="scale(1,-1)"
         id="g202"><path
           id="path204"
           style="fill:none;stroke:#000000;stroke-width:0.6;stroke-linecap:butt;stroke-linejoin:round;stroke-miterlimit:10;stroke-dasharray:none;stroke-opacity:1"
           d="m 39.461,-120.93 h -2" /></g><g
         transform="scale(1,-1)"
         id="g206"><path
           id="path208"
           style="fill:none;stroke:#000000;stroke-width:0.6;stroke-linecap:butt;stroke-linejoin:round;stroke-miterlimit:10;stroke-dasharray:none;stroke-opacity:1"
           d="m 39.461,-118.504 h -2" /></g><g
         transform="scale(1,-1)"
         id="g210"><path
           id="path212"
           style="fill:none;stroke:#000000;stroke-width:0.6;stroke-linecap:butt;stroke-linejoin:round;stroke-miterlimit:10;stroke-dasharray:none;stroke-opacity:1"
           d="m 39.461,-116.406 h -2" /></g><g
         transform="scale(1,-1)"
         id="g214"><path
           id="path216"
           style="fill:none;stroke:#000000;stroke-width:0.6;stroke-linecap:butt;stroke-linejoin:round;stroke-miterlimit:10;stroke-dasharray:none;stroke-opacity:1"
           d="m 39.461,-114.551 h -2" /></g><g
         transform="scale(1,-1)"
         id="g218"><path
           id="path220"
           style="fill:none;stroke:#000000;stroke-width:0.6;stroke-linecap:butt;stroke-linejoin:round;stroke-miterlimit:10;stroke-dasharray:none;stroke-opacity:1"
           d="m 39.461,-101.992 h -2" /></g><g
         transform="scale(1,-1)"
         id="g222"><path
           id="path224"
           style="fill:none;stroke:#000000;stroke-width:0.6;stroke-linecap:butt;stroke-linejoin:round;stroke-miterlimit:10;stroke-dasharray:none;stroke-opacity:1"
           d="m 39.461,-95.617 h -2" /></g><g
         transform="scale(1,-1)"
         id="g226"><path
           id="path228"
           style="fill:none;stroke:#000000;stroke-width:0.6;stroke-linecap:butt;stroke-linejoin:round;stroke-miterlimit:10;stroke-dasharray:none;stroke-opacity:1"
           d="m 39.461,-91.09 h -2" /></g><g
         transform="scale(1,-1)"
         id="g230"><path
           id="path232"
           style="fill:none;stroke:#000000;stroke-width:0.6;stroke-linecap:butt;stroke-linejoin:round;stroke-miterlimit:10;stroke-dasharray:none;stroke-opacity:1"
           d="m 39.461,-87.582 h -2" /></g><g
         transform="scale(1,-1)"
         id="g234"><path
           id="path236"
           style="fill:none;stroke:#000000;stroke-width:0.6;stroke-linecap:butt;stroke-linejoin:round;stroke-miterlimit:10;stroke-dasharray:none;stroke-opacity:1"
           d="m 39.461,-84.715 h -2" /></g><g
         transform="scale(1,-1)"
         id="g238"><path
           id="path240"
           style="fill:none;stroke:#000000;stroke-width:0.6;stroke-linecap:butt;stroke-linejoin:round;stroke-miterlimit:10;stroke-dasharray:none;stroke-opacity:1"
           d="m 39.461,-82.289 h -2" /></g><g
         transform="scale(1,-1)"
         id="g242"><path
           id="path244"
           style="fill:none;stroke:#000000;stroke-width:0.6;stroke-linecap:butt;stroke-linejoin:round;stroke-miterlimit:10;stroke-dasharray:none;stroke-opacity:1"
           d="m 39.461,-80.191 h -2" /></g><g
         transform="scale(1,-1)"
         id="g246"><path
           id="path248"
           style="fill:none;stroke:#000000;stroke-width:0.6;stroke-linecap:butt;stroke-linejoin:round;stroke-miterlimit:10;stroke-dasharray:none;stroke-opacity:1"
           d="m 39.461,-78.336 h -2" /></g><g
         transform="scale(1,-1)"
         id="g250"><path
           id="path252"
           style="fill:none;stroke:#000000;stroke-width:0.6;stroke-linecap:butt;stroke-linejoin:round;stroke-miterlimit:10;stroke-dasharray:none;stroke-opacity:1"
           d="m 39.461,-65.777 h -2" /></g><g
         transform="scale(1,-1)"
         id="g254"><path
           id="path256"
           style="fill:none;stroke:#000000;stroke-width:0.6;stroke-linecap:butt;stroke-linejoin:round;stroke-miterlimit:10;stroke-dasharray:none;stroke-opacity:1"
           d="m 39.461,-59.402 h -2" /></g><g
         transform="scale(1,-1)"
         id="g258"><path
           id="path260"
           style="fill:none;stroke:#000000;stroke-width:0.6;stroke-linecap:butt;stroke-linejoin:round;stroke-miterlimit:10;stroke-dasharray:none;stroke-opacity:1"
           d="m 39.461,-54.875 h -2" /></g><g
         transform="scale(1,-1)"
         id="g262"><path
           id="path264"
           style="fill:none;stroke:#000000;stroke-width:0.6;stroke-linecap:butt;stroke-linejoin:round;stroke-miterlimit:10;stroke-dasharray:none;stroke-opacity:1"
           d="m 39.461,-51.367 h -2" /></g><g
         transform="scale(1,-1)"
         id="g266"><path
           id="path268"
           style="fill:none;stroke:#000000;stroke-width:0.6;stroke-linecap:butt;stroke-linejoin:round;stroke-miterlimit:10;stroke-dasharray:none;stroke-opacity:1"
           d="m 39.461,-48.5 h -2" /></g><g
         transform="scale(1,-1)"
         id="g270"><path
           id="path272"
           style="fill:none;stroke:#000000;stroke-width:0.6;stroke-linecap:butt;stroke-linejoin:round;stroke-miterlimit:10;stroke-dasharray:none;stroke-opacity:1"
           d="m 39.461,-46.074 h -2" /></g><g
         transform="scale(1,-1)"
         id="g274"><path
           id="path276"
           style="fill:none;stroke:#000000;stroke-width:0.6;stroke-linecap:butt;stroke-linejoin:round;stroke-miterlimit:10;stroke-dasharray:none;stroke-opacity:1"
           d="m 39.461,-43.977 h -2" /></g><g
         transform="scale(1,-1)"
         id="g278"><path
           id="path280"
           style="fill:none;stroke:#000000;stroke-width:0.6;stroke-linecap:butt;stroke-linejoin:round;stroke-miterlimit:10;stroke-dasharray:none;stroke-opacity:1"
           d="m 39.461,-42.121 h -2" /></g><g
         transform="scale(1,-1)"
         id="g282"><path
           id="path284"
           style="fill:none;stroke:#000000;stroke-width:0.6;stroke-linecap:butt;stroke-linejoin:round;stroke-miterlimit:10;stroke-dasharray:none;stroke-opacity:1"
           d="m 39.461,-29.563 h -2" /></g><g
         transform="scale(1,-1)"
         id="g286"><path
           id="path288"
           style="fill:none;stroke:#000000;stroke-width:0.6;stroke-linecap:butt;stroke-linejoin:round;stroke-miterlimit:10;stroke-dasharray:none;stroke-opacity:1"
           d="m 39.461,-23.188 h -2" /></g><g
         transform="scale(1,-1)"
         id="g290"><path
           id="path292"
           style="fill:none;stroke:#000000;stroke-width:0.6;stroke-linecap:butt;stroke-linejoin:round;stroke-miterlimit:10;stroke-dasharray:none;stroke-opacity:1"
           d="m 39.461,-18.66 h -2" /></g><g
         transform="scale(1,-1)"
         id="g294"><path
           id="path296"
           style="fill:none;stroke:#000000;stroke-width:0.6;stroke-linecap:butt;stroke-linejoin:round;stroke-miterlimit:10;stroke-dasharray:none;stroke-opacity:1"
           d="m 39.461,-15.152 h -2" /></g><text
         id="text300"
         style="font-style:italic;font-variant:normal;font-size:16px;font-family:'Times New Roman';-inkscape-font-specification:TimesNewRomanPS-ItalicMT;writing-mode:lr-tb;fill:#000000;fill-opacity:1;fill-rule:nonzero;stroke:none"
         transform="rotate(-90,48.916014,41.845702)"><tspan
           id="tspan298"
           y="0"
           x="0">r</tspan></text></g><g
       id="g302"><g
         clip-path="url(#clipPath308)"
         id="g304"><g
           id="g310"><g
             id="g312"><g
               clip-path="url(#clipPath318)"
               id="g314"><g
                 id="g320"><g
                   transform="scale(1,-1)"
                   id="g322"><path
                     id="path324"
                     style="fill:none;stroke:#333399;stroke-width:1;stroke-linecap:butt;stroke-linejoin:round;stroke-miterlimit:10;stroke-dasharray:3.7, 1.6;stroke-dashoffset:0;stroke-opacity:1"
                     d="m 78.598,-159.191 -26.828,83.722 -2.536,10.867 -1.386,6.364 -0.559,4.515 -0.805,3.508 -0.355,2.863 -0.356,2.426 -0.351,2.098 -0.356,1.851 -0.32,1.657 -0.183,1.496 -0.184,1.371 -0.184,1.258 -0.183,1.164 -0.168,1.086 -0.129,1.011 -0.125,0.954 -0.129,0.902 -0.125,0.848 -0.113,0.808 -0.094,0.766 -0.094,0.73 -0.094,0.699 -0.093,0.672 -0.086,0.641 -0.078,0.617 -0.079,0.594 -0.074,0.57 -0.078,0.551 -0.066,0.535 -0.051,0.516 -0.055,0.5 -0.054,0.484 -0.055,0.469 -0.051,0.453 -0.051,0.445 -0.047,0.43 -0.05,0.418 -0.047,0.41 -0.039,0.399 -0.035,0.386 -0.036,0.379 -0.035,0.371 -0.035,0.364 -0.047,0.351 -0.043,0.348 -0.047,0.336 -0.043,0.332 -0.046,0.324" /></g></g></g></g></g><g
           id="g326"><g
             id="g328"><g
               clip-path="url(#clipPath334)"
               id="g330"><g
                 id="g336"><g
                   transform="scale(1,-1)"
                   id="g338"><path
                     id="path340"
                     style="fill:none;stroke:#993333;stroke-width:1;stroke-linecap:butt;stroke-linejoin:round;stroke-miterlimit:10;stroke-dasharray:3.7, 1.6;stroke-dashoffset:0;stroke-opacity:1"
                     d="m 270.652,-133.184 -132.113,57.715 -18.098,10.867 -9.914,6.364 -3.984,4.515 -5.754,3.508 -2.527,2.863 -2.532,2.426 -2.527,2.098 -2.531,1.851 -2.281,1.657 -1.317,1.496 -1.316,1.371 -1.317,1.258 -1.316,1.164 -1.191,1.086 -0.907,1.011 -0.906,0.954 -0.906,0.902 -0.906,0.848 -0.813,0.808 -0.668,0.766 -0.672,0.73 -0.668,0.699 -0.672,0.672 -0.609,0.641 -0.555,0.617 -0.55,0.594 -0.555,0.57 -0.555,0.551 -0.453,0.535 -0.387,0.516 -0.39,0.5 -0.387,0.484 -0.391,0.469 -0.359,0.453 -0.352,0.445 -0.347,0.43 -0.352,0.418 -0.347,0.41 -0.274,0.399 -0.25,0.386 -0.254,0.379 -0.25,0.371 -0.254,0.364 -0.312,0.351 -0.324,0.348 -0.325,0.336 -0.324,0.332 -0.32,0.324" /></g></g></g></g></g></g></g><g
       id="g342"><g
         transform="scale(1,-1)"
         id="g344"><path
           id="path346"
           style="fill:none;stroke:#000000;stroke-width:0.8;stroke-linecap:square;stroke-linejoin:miter;stroke-miterlimit:10;stroke-dasharray:none;stroke-opacity:1"
           d="M 39.461,-159.191 V -14.332" /></g><g
         transform="scale(1,-1)"
         id="g348"><path
           id="path350"
           style="fill:none;stroke:#000000;stroke-width:0.8;stroke-linecap:square;stroke-linejoin:miter;stroke-miterlimit:10;stroke-dasharray:none;stroke-opacity:1"
           d="M 219.457,-159.191 V -14.332" /></g><g
         transform="scale(1,-1)"
         id="g352"><path
           id="path354"
           style="fill:none;stroke:#000000;stroke-width:0.8;stroke-linecap:square;stroke-linejoin:miter;stroke-miterlimit:10;stroke-dasharray:none;stroke-opacity:1"
           d="M 39.461,-159.191 H 219.457" /></g><g
         transform="scale(1,-1)"
         id="g356"><path
           id="path358"
           style="fill:none;stroke:#000000;stroke-width:0.8;stroke-linecap:square;stroke-linejoin:miter;stroke-miterlimit:10;stroke-dasharray:none;stroke-opacity:1"
           d="M 39.461,-14.332 H 219.457" /></g><path
         id="path360"
         style="fill:#ffffff;fill-opacity:1;fill-rule:nonzero;stroke:none"
         d="m 230.707,14.332 h 7.242 v 144.859 h -7.242 z" /></g><g
       id="g362"><g
         clip-path="url(#clipPath368)"
         id="g364"><g
           id="g370"><g
             id="g372"><g
               clip-path="url(#clipPath378)"
               id="g374"><g
                 id="g380"><g
                   transform="scale(1,-1)"
                   id="g382"><path
                     id="path384"
                     style="fill:#ffffff;fill-opacity:1;fill-rule:nonzero;stroke:#ffffff;stroke-width:0.01;stroke-linecap:butt;stroke-linejoin:miter;stroke-miterlimit:10;stroke-dasharray:none;stroke-opacity:1"
                     d="m 230.707,-14.332 h 7.242 v -144.859 h -7.242 z" /></g></g></g></g></g><g
           id="g386"><g
             id="g388" /><g
             id="g404"><g
               id="g402"
               clip-path="url(#clipPath392)"><g
                 id="g400"><path
                   id="path394"
                   style="fill:#993333;fill-opacity:0.25;fill-rule:nonzero;stroke:none"
                   d="m 230.707,110.906 h 7.242 v 48.285 h -7.242 z" /><path
                   id="path396"
                   style="fill:#339933;fill-opacity:0.25;fill-rule:nonzero;stroke:none"
                   d="m 230.707,62.617 h 7.242 v 48.289 h -7.242 z" /><path
                   id="path398"
                   style="fill:#333399;fill-opacity:0.25;fill-rule:nonzero;stroke:none"
                   d="m 230.707,14.332 h 7.242 v 48.285 h -7.242 z" /></g></g></g></g></g></g><g
       id="g406"><g
         transform="scale(1,-1)"
         id="g408"><path
           id="path410"
           style="fill:none;stroke:#000000;stroke-width:0.8;stroke-linecap:butt;stroke-linejoin:round;stroke-miterlimit:10;stroke-dasharray:none;stroke-opacity:1"
           d="m 237.949,-159.191 h 3.5" /></g><text
         id="text414"
         style="font-style:italic;font-variant:normal;font-size:10px;font-family:'Times New Roman';-inkscape-font-specification:TimesNewRomanPS-ItalicMT;writing-mode:lr-tb;fill:#000000;fill-opacity:1;fill-rule:nonzero;stroke:none"
         transform="translate(244.95051,162.60546)"><tspan
           id="tspan412"
           sodipodi:role="line"
           y="0"
           x="0 5 7.5 12.5">0.00</tspan></text><g
         transform="scale(1,-1)"
         id="g416"><path
           id="path418"
           style="fill:none;stroke:#000000;stroke-width:0.8;stroke-linecap:butt;stroke-linejoin:round;stroke-miterlimit:10;stroke-dasharray:none;stroke-opacity:1"
           d="m 237.949,-110.906 h 3.5" /></g><text
         id="text422"
         style="font-style:italic;font-variant:normal;font-size:10px;font-family:'Times New Roman';-inkscape-font-specification:TimesNewRomanPS-ItalicMT;writing-mode:lr-tb;fill:#000000;fill-opacity:1;fill-rule:nonzero;stroke:none"
         transform="translate(244.95051,114.31901)"><tspan
           id="tspan420"
           sodipodi:role="line"
           y="0"
           x="0 5 7.5 12.5">0.45</tspan></text><g
         transform="scale(1,-1)"
         id="g424"><path
           id="path426"
           style="fill:none;stroke:#000000;stroke-width:0.8;stroke-linecap:butt;stroke-linejoin:round;stroke-miterlimit:10;stroke-dasharray:none;stroke-opacity:1"
           d="m 237.949,-62.617 h 3.5" /></g><text
         id="text430"
         style="font-style:italic;font-variant:normal;font-size:10px;font-family:'Times New Roman';-inkscape-font-specification:TimesNewRomanPS-ItalicMT;writing-mode:lr-tb;fill:#000000;fill-opacity:1;fill-rule:nonzero;stroke:none"
         transform="translate(244.95051,66.03255)"><tspan
           id="tspan428"
           sodipodi:role="line"
           y="0"
           x="0 5 7.5 12.5">0.95</tspan></text><g
         transform="scale(1,-1)"
         id="g432"><path
           id="path434"
           style="fill:none;stroke:#000000;stroke-width:0.8;stroke-linecap:butt;stroke-linejoin:round;stroke-miterlimit:10;stroke-dasharray:none;stroke-opacity:1"
           d="m 237.949,-14.332 h 3.5" /></g><text
         id="text438"
         style="font-style:italic;font-variant:normal;font-size:10px;font-family:'Times New Roman';-inkscape-font-specification:TimesNewRomanPS-ItalicMT;writing-mode:lr-tb;fill:#000000;fill-opacity:1;fill-rule:nonzero;stroke:none"
         transform="translate(244.95051,17.746091)"><tspan
           id="tspan436"
           sodipodi:role="line"
           y="0"
           x="0 5 7.5 12.5">1.05</tspan></text><g
         transform="scale(1,-1)"
         id="g440"><path
           id="path442"
           style="fill:none;stroke:#000000;stroke-width:0.8;stroke-linecap:square;stroke-linejoin:miter;stroke-miterlimit:10;stroke-dasharray:none;stroke-opacity:1"
           d="m 230.707,-14.332 h 7.242 v -144.859 h -7.242 z" /></g><text
         id="text448"
         style="font-style:italic;font-variant:normal;font-size:12px;font-family:'Times New Roman';-inkscape-font-specification:TimesNewRomanPS-ItalicMT;writing-mode:lr-tb;fill:#000000;fill-opacity:1;fill-rule:nonzero;stroke:none"
         transform="translate(221.63517,8.394531)"><tspan
           id="tspan444"
           y="0"
           x="0">˜</tspan><tspan
           id="tspan446"
           y="-0.062499959"
           x="-1.806156">µ</tspan></text><text
         id="text452"
         style="font-style:italic;font-variant:normal;font-size:8.4px;font-family:'Times New Roman';-inkscape-font-specification:TimesNewRomanPS-ItalicMT;writing-mode:lr-tb;fill:#000000;fill-opacity:1;fill-rule:nonzero;stroke:none"
         transform="translate(227.58932,10.372781)"><tspan
           id="tspan450"
           y="0"
           x="0">3</tspan></text><text
         id="text456"
         style="font-style:italic;font-variant:normal;font-size:12px;font-family:'Times New Roman';-inkscape-font-specification:TimesNewRomanPS-ItalicMT;writing-mode:lr-tb;fill:#000000;fill-opacity:1;fill-rule:nonzero;stroke:none"
         transform="translate(232.5546,8.332031)"><tspan
           id="tspan454"
           sodipodi:role="line"
           y="0"
           x="0 4.6560001 11.496">(x)</tspan></text><text
         id="text464"
         style="font-variant:normal;font-weight:normal;font-size:12px;font-family:'Times New Roman';-inkscape-font-specification:TimesNewRomanPSMT;writing-mode:lr-tb;fill:#000000;fill-opacity:1;fill-rule:nonzero;stroke:none"
         transform="translate(39.380282,138.05496)"><tspan
           id="tspan458"
           sodipodi:role="line"
           y="0"
           x="0 7.9920001 13.992 17.316 21.312 26.628">Chiral</tspan><tspan
           id="tspan460"
           sodipodi:role="line"
           y="-31.393164"
           x="47.421181 55.413181 59.40918 65.40918 70.077179 74.745178 80.745178 86.745178 92.06118">Crossover</tspan><tspan
           id="tspan462"
           sodipodi:role="line"
           y="-83.427048"
           x="110.68925 118.00925 124.00925 129.32524 134.64125 137.96524 141.28925 146.60526 151.92125">Localized</tspan></text></g></g></svg>
